<?xml version="1.0" encoding="iso-8859-1"?>
<!-- Generator: Adobe Illustrator 21.0.2, SVG Export Plug-In . SVG Version: 6.00 Build 0)  -->
<svg version="1.1" id="Capa_1" xmlns="http://www.w3.org/2000/svg" xmlns:xlink="http://www.w3.org/1999/xlink" x="0px" y="0px"
	 viewBox="0 0 1008.786 477.186" style="enable-background:new 0 0 1008.786 477.186;" xml:space="preserve">
<path d="M392.509,276.281h7.741c3.864,0,7.738-1.643,7.738-6.423c0-4.674-4.025-6.526-7.945-6.526h-7.533V276.281z M389.1,260.251
	h10.528c5.159,0,11.764,2.006,11.764,9.606c0,6.582-5.266,9.505-10.988,9.505h-7.896v17.273H389.1V260.251z"/>
<path d="M417.855,279.572c0-1.748-0.26-5.445-0.26-6.683h3.097c0.048,1.746,0.103,3.7,0.208,4.165
	c1.546-2.773,4.019-4.779,7.581-4.779c0.624,0,1.19,0.099,1.806,0.26l-0.362,3.025c-0.461-0.152-0.873-0.201-1.182-0.201
	c-5.366,0-7.798,3.699-7.798,8.328v12.947h-3.089V279.572z"/>
<path d="M445.307,294.474c5.829,0,9.441-4.367,9.441-9.715c0-5.344-3.612-9.707-9.441-9.707c-5.827,0-9.44,4.363-9.44,9.707
	C435.867,290.107,439.48,294.474,445.307,294.474 M445.307,272.273c7.323,0,12.539,5.244,12.539,12.486
	c0,7.248-5.215,12.488-12.539,12.488c-7.327,0-12.54-5.24-12.54-12.488C432.767,277.517,437.98,272.273,445.307,272.273"/>
<path d="M466.526,275.666h-4.952v-2.776h4.952v-7.753c0-6.117,4.078-7.969,7.119-7.969c1.495,0,2.63,0.205,3.56,0.613l-0.617,2.68
	c-0.723-0.363-1.6-0.522-2.788-0.522c-2.839,0-4.178,2.058-4.178,6.324v6.626h5.57v2.776h-5.57v20.971h-3.096V275.666z"/>
<path d="M498.723,282.759c0-4.215-3.661-7.707-8.259-7.707c-6.758,0-8.661,6.47-8.661,7.707H498.723z M501.097,292.162
	c-2.424,3.596-6.086,5.086-10.319,5.086c-7.272,0-12.073-5.188-12.073-12.537c0-7.092,4.951-12.438,11.92-12.438
	c7.327,0,11.193,5.6,11.193,11.101v2.157h-20.016c0,2.566,1.806,8.943,9.027,8.943c3.147,0,6.447-1.645,8-4.217L501.097,292.162z"/>
<path d="M508.801,290.566c1.29,2.521,4.124,3.908,6.91,3.908c2.683,0,5.466-1.645,5.466-4.367c0-6.524-14.134-1.956-14.134-10.998
	c0-4.627,4.229-6.836,8.156-6.836c3.868,0,6.858,1.441,8.409,4.472l-2.793,1.644c-1.18-2.162-2.83-3.336-5.616-3.336
	c-2.219,0-5.057,1.334-5.057,3.803c0,6.418,14.134,1.438,14.134,11.044c0,4.884-4.072,7.349-8.615,7.349
	c-4.078,0-7.738-1.537-9.599-4.828L508.801,290.566z"/>
<path d="M530.788,290.566c1.289,2.521,4.125,3.908,6.91,3.908c2.68,0,5.469-1.645,5.469-4.367c0-6.524-14.133-1.956-14.133-10.998
	c0-4.627,4.229-6.836,8.152-6.836c3.867,0,6.863,1.441,8.406,4.472l-2.787,1.644c-1.186-2.162-2.832-3.336-5.619-3.336
	c-2.221,0-5.057,1.334-5.057,3.803c0,6.418,14.131,1.438,14.131,11.044c0,4.884-4.07,7.349-8.613,7.349
	c-4.074,0-7.74-1.537-9.598-4.828L530.788,290.566z"/>
<path d="M553.237,272.889h3.094v23.747h-3.094V272.889z M554.786,261.176c1.289,0,2.318,1.027,2.318,2.314
	c0,1.283-1.029,2.309-2.318,2.309c-1.291,0-2.322-1.025-2.322-2.309C552.464,262.204,553.495,261.176,554.786,261.176"/>
<path d="M576.306,294.474c5.83,0,9.441-4.367,9.441-9.715c0-5.344-3.611-9.707-9.441-9.707c-5.828,0-9.441,4.363-9.441,9.707
	C566.864,290.107,570.477,294.474,576.306,294.474 M576.306,272.273c7.326,0,12.539,5.244,12.539,12.486
	c0,7.248-5.213,12.488-12.539,12.488c-7.326,0-12.535-5.24-12.535-12.488C563.771,277.517,568.979,272.273,576.306,272.273"/>
<path d="M595.768,279.572c0-1.748-0.256-5.445-0.256-6.683h3.096c0.053,1.746,0.105,3.7,0.205,4.165h0.158
	c1.238-2.621,4.279-4.779,8.146-4.779c7.436,0,9.088,5.035,9.088,10.224v14.136h-3.1v-13.98c0-3.852-1.084-7.602-5.988-7.602
	c-4.588,0-8.25,3.183-8.25,9.707v11.875h-3.1V279.572z"/>
<path d="M636.804,284.711c-5.16,0-10.328,1.285-10.328,5.346c0,2.928,2.84,4.418,5.422,4.418c6.602,0,8.307-4.217,8.307-8.172
	v-1.592H636.804z M642.987,286.661c0,4.626,0.102,7.249,0.471,9.974h-2.895c-0.203-1.182-0.305-2.522-0.305-3.855h-0.107
	c-1.756,3.029-4.336,4.469-8.359,4.469c-4.074,0-8.404-2.008-8.404-7.039c0-7.246,8.51-7.966,13.209-7.966h3.607v-1.441
	c0-4.103-2.889-5.749-6.701-5.749c-2.793,0-5.164,0.871-7.281,2.674l-1.803-2.109c2.269-2.162,5.986-3.344,9.084-3.344
	c5.769,0,9.484,2.574,9.484,8.584V286.661z"/>
<rect x="651.774" y="257.781" width="3.094" height="38.854"/>
<polygon style="fill:#E6292B;" points="659.771,260.251 663.288,260.251 672.366,292.47 672.47,292.47 681.702,260.251 
	686.036,260.251 695.274,292.47 695.376,292.47 704.458,260.251 707.97,260.251 697.335,296.636 693.155,296.636 683.923,264.256 
	683.821,264.256 674.581,296.636 670.403,296.636 "/>
<path style="fill:#E6292B;" d="M722.64,294.474c5.83,0,9.443-4.367,9.443-9.715c0-5.344-3.613-9.707-9.443-9.707
	s-9.443,4.363-9.443,9.707C713.196,290.107,716.81,294.474,722.64,294.474 M722.64,272.273c7.326,0,12.537,5.244,12.537,12.486
	c0,7.248-5.211,12.488-12.537,12.488c-7.324,0-12.541-5.24-12.541-12.488C710.099,277.517,715.315,272.273,722.64,272.273"/>
<path style="fill:#E6292B;" d="M742.097,279.572c0-1.748-0.252-5.445-0.252-6.683h3.092c0.055,1.746,0.104,3.7,0.209,4.165
	c1.549-2.773,4.023-4.779,7.578-4.779c0.625,0,1.19,0.099,1.809,0.26l-0.361,3.025c-0.457-0.152-0.877-0.201-1.184-0.201
	c-5.367,0-7.793,3.699-7.793,8.328v12.947h-3.098V279.572z"/>
<polygon style="fill:#E6292B;" points="759.286,257.781 762.382,257.781 762.382,283.683 774.146,272.938 778.684,272.938 
	766.407,283.785 780.126,296.634 775.436,296.634 762.382,284.086 762.382,296.634 759.286,296.634 "/>
<path style="fill:#E6292B;" d="M784.632,272.889h3.088v23.747h-3.088V272.889z M786.171,261.176c1.301,0,2.322,1.027,2.322,2.314
	c0,1.283-1.021,2.309-2.322,2.309c-1.281,0-2.315-1.025-2.315-2.309C783.856,262.204,784.89,261.176,786.171,261.176"/>
<path style="fill:#E6292B;" d="M796.501,279.572c0-1.748-0.264-5.445-0.264-6.683h3.103c0.053,1.746,0.102,3.7,0.199,4.165h0.16
	c1.238-2.621,4.281-4.779,8.154-4.779c7.428,0,9.082,5.035,9.082,10.224v14.136h-3.102v-13.98c0-3.852-1.086-7.602-5.98-7.602
	c-4.594,0-8.262,3.183-8.262,9.707v11.875h-3.092V279.572z"/>
<path style="fill:#E6292B;" d="M836.706,275.052c-5.211,0-9.438,4.213-9.438,9.4c0,5.188,4.227,9.402,9.438,9.402
	c5.211,0,9.445-4.214,9.445-9.402C846.151,279.265,841.917,275.052,836.706,275.052 M849.142,295.093
	c0,11.815-7.842,13.867-12.693,13.867c-4.797,0-9.391-1.852-11.816-4.98l2.426-2.262c2.168,3.029,5.68,4.471,9.391,4.471
	c9.44,0,9.596-8.221,9.596-10.895v-3.287h-0.098c-1.809,2.826-4.959,4.627-9.029,4.627c-7.02,0-12.746-5.5-12.746-12.182
	c0-6.683,5.727-12.182,12.746-12.182c4.07,0,7.221,1.805,9.029,4.627h0.098v-4.009h3.098V295.093z"/>
<path d="M887.694,290.927c-3.461,4.728-8.201,6.629-13.572,6.629c-11.141,0-18.883-8.018-18.883-19.114
	c0-11.103,7.742-19.117,18.883-19.117c4.953,0,9.391,1.646,12.59,5.704l-2.781,2.311c-2.279-3.393-6.143-4.927-9.809-4.927
	c-9.541,0-15.475,6.985-15.475,16.029c0,9.042,5.934,16.032,15.475,16.032c3.666,0,8.205-1.744,10.783-5.652L887.694,290.927z"/>
<path d="M911.751,282.759c0-4.215-3.662-7.707-8.256-7.707c-6.76,0-8.67,6.47-8.67,7.707H911.751z M914.128,292.162
	c-2.432,3.596-6.092,5.086-10.316,5.086c-7.281,0-12.078-5.188-12.078-12.537c0-7.092,4.953-12.438,11.914-12.438
	c7.324,0,11.207,5.6,11.207,11.101v2.157h-20.029c0,2.566,1.807,8.943,9.035,8.943c3.143,0,6.443-1.645,7.998-4.217L914.128,292.162
	z"/>
<path d="M921.771,279.572c0-1.748-0.254-5.445-0.254-6.683h3.092c0.055,1.746,0.107,3.7,0.211,4.165h0.15
	c1.246-2.621,4.291-4.779,8.152-4.779c7.438,0,9.084,5.035,9.084,10.224v14.136h-3.098v-13.98c0-3.852-1.08-7.602-5.986-7.602
	c-4.588,0-8.25,3.183-8.25,9.707v11.875h-3.102V279.572z"/>
<path d="M962.132,275.666h-6.814v15.471c0,2.107,1.246,3.338,3.303,3.338c1.188,0,2.424-0.361,3.512-0.824l0.252,2.773
	c-1.129,0.412-2.834,0.824-4.018,0.824c-4.441,0-6.143-2.723-6.143-6.111v-15.471h-5.156v-2.776h5.156v-6.83h3.094v6.83h6.814
	V275.666z"/>
<path d="M986.337,282.759c0-4.215-3.662-7.707-8.256-7.707c-6.76,0-8.664,6.47-8.664,7.707H986.337z M988.71,292.162
	c-2.422,3.596-6.088,5.086-10.316,5.086c-7.281,0-12.078-5.188-12.078-12.537c0-7.092,4.957-12.438,11.922-12.438
	c7.326,0,11.193,5.6,11.193,11.101v2.157h-20.014c0,2.566,1.803,8.943,9.02,8.943c3.152,0,6.455-1.645,8.004-4.217L988.71,292.162z"
	/>
<path d="M996.356,279.572c0-1.748-0.258-5.445-0.258-6.683h3.092c0.053,1.746,0.111,3.7,0.209,4.165
	c1.545-2.773,4.029-4.779,7.578-4.779c0.625,0,1.199,0.099,1.809,0.26l-0.357,3.025c-0.467-0.152-0.875-0.201-1.188-0.201
	c-5.361,0-7.787,3.699-7.787,8.328v12.947h-3.098V279.572z"/>
<g>
	<path d="M512.741,228.723c-14.533,14.287-33.324,20.917-53.716,20.917c-52.517,0-74.72-36.001-74.927-72.609
		c-0.2-36.808,23.832-74.208,74.927-74.208c19.177,0,37.36,7.236,51.904,21.515l-17.775,17.098
		c-9.283-9.054-21.813-13.279-34.129-13.279c-34.134,0-48.877,25.341-48.679,48.874c0.209,23.329,13.737,47.672,48.679,47.672
		c12.316,0,26.248-5.027,35.544-14.282L512.741,228.723z"/>
	<polygon points="626.081,246.623 520.255,246.623 520.255,105.834 626.081,105.834 626.081,131.579 546.712,131.579 
		546.712,163.95 623.259,163.95 623.259,188.687 546.712,188.687 546.712,220.476 626.081,220.476 	"/>
	<path d="M667.354,221.077h29.074c32.104,0,44.836-23.331,44.223-46.263c-0.596-21.915-13.525-43.842-44.223-43.842h-29.074V221.077
		z M767.118,175.023c0.602,35.595-21.207,71.6-70.689,71.6h-55.531V105.834h55.531C744.903,105.834,766.503,140.221,767.118,175.023
		"/>
	<polygon points="840.974,246.925 813.3,246.925 754.532,105.535 784.417,105.535 827.04,215.159 869.851,105.535 899.729,105.535 	
		"/>
	<polygon points="945.026,105.835 915.944,105.835 852.53,246.626 881.417,246.626 930.497,135.395 979.368,246.626 
		1008.438,246.626 	"/>
</g>
<g>
	<polygon style="fill:#E6292B;" points="0,117.994 142.195,199.754 0,281.507 	"/>
	<polygon style="fill:#E6292B;" points="0,299.619 86.851,249.681 86.857,349.564 	"/>
	<polygon style="fill:#F8D237;" points="86.853,49.929 173.7,0 173.7,99.869 	"/>
	<polygon style="fill:#F3C62E;" points="260.543,49.942 173.701,99.878 173.701,0 	"/>
	<polygon style="fill:#F3B82D;" points="173.696,99.873 260.537,49.935 260.544,149.81 	"/>
	<polygon style="fill:#F2AC2E;" points="347.399,99.877 260.549,149.812 260.542,49.937 	"/>
	<polygon style="fill:#F2A02D;" points="260.551,149.806 347.392,99.869 347.392,199.741 	"/>
	<polygon style="fill:#F6E93D;" points="0,99.934 86.857,49.988 86.842,149.871 	"/>
	<polygon style="fill:#F7DE31;" points="173.706,99.815 86.857,149.762 86.864,49.88 	"/>
	<polygon style="fill:#EF9229;" points="347.393,199.737 260.551,249.686 260.551,149.807 	"/>
	<polygon style="fill:#EF8629;" points="260.551,249.696 347.392,199.745 347.392,299.634 	"/>
	<polygon style="fill:#EB6029;" points="260.551,349.566 173.697,399.496 173.702,299.626 	"/>
	<polygon style="fill:#E94F29;" points="86.857,349.566 173.696,299.626 173.696,399.496 	"/>
	<polygon style="fill:#E73E2B;" points="173.696,299.625 86.857,349.564 86.857,249.676 	"/>
	<polygon style="fill:#EF7A28;" points="347.399,299.632 260.549,349.566 260.549,249.691 	"/>
	<polygon style="fill:#ED6E29;" points="173.702,299.625 260.551,249.681 260.551,349.572 	"/>
</g>
<path style="fill:#E6292B;" d="M658.616,432.77l-9.589,1.343l1.771,12.605l8.805-1.232l1.776,12.599l-8.799,1.233l1.784,12.603
	l9.585-1.346l-1.77-12.597l8.797-1.231l-1.779-12.605l-8.802,1.231L658.616,432.77z M642.681,460.707l9.591-1.342l-1.771-12.603
	l-9.603,1.341L642.681,460.707z M677.321,430.15l-9.592,1.351l1.777,12.598l9.347-1.304l1.781,12.596l-9.353,1.307l1.786,12.607
	l9.589-1.346l-1.779-12.596l9.351-1.312l-1.774-12.601l-9.356,1.302L677.321,430.15z M852.063,453.785l-33.256,4.808l-20.81-26.283
	l12.436-31.091l33.267-4.805l6.349,8.007l24.741-3.462c-10.126-16.835-29.698-26.902-50.437-24.005
	c-21.075,2.954-37.271,18.453-42.059,37.85l-76.944,10.771l1.867,13.244l-8.87,1.243l-1.772-12.603l-9.598,1.345l1.784,12.605
	l9.347-1.31l1.777,12.594l-9.35,1.309l1.774,12.612l9.603-1.354l-1.786-12.596l8.874-1.241l1.69,11.993l77.262-10.81
	c10.102,16.888,29.703,26.991,50.477,24.083c20.652-2.888,36.623-17.826,41.764-36.676l-23.955,3.355L852.063,453.785z
	 M896.121,426.823c-2.057,2.137-4.75,3.436-8.063,3.896c-3.29,0.461-6.281-0.088-8.96-1.642c-2.689-1.553-4.297-4.249-4.842-8.079
	c-0.56-3.955,0.165-7.017,2.175-9.173c1.995-2.156,4.684-3.468,8.052-3.942c3.458-0.485,6.507,0.069,9.139,1.651
	c2.632,1.585,4.226,4.422,4.807,8.511C898.96,421.767,898.191,424.687,896.121,426.823 M896.117,406.173
	c-1.5-1.037-3.349-1.784-5.567-2.248c-2.214-0.474-4.673-0.516-7.361-0.132c-3.691,0.512-6.929,1.628-9.718,3.338
	c-2.804,1.707-4.769,3.89-5.92,6.524c-1.143,2.639-1.513,5.451-1.086,8.438c0.432,3.056,1.633,5.647,3.607,7.776
	c1.983,2.126,4.558,3.633,7.746,4.531c3.169,0.892,6.545,1.089,10.112,0.592c5.505-0.771,9.472-2.843,11.897-6.201l0.529,3.771
	l7.044-0.984l-5.83-41.269l-7.552,1.049L896.117,406.173z M1007.528,342.686c0,0.713-0.173,1.393-0.537,2.035
	c-0.36,0.653-0.875,1.161-1.519,1.52c-0.652,0.36-1.335,0.548-2.049,0.548c-0.706,0-1.392-0.188-2.04-0.548
	c-0.66-0.36-1.153-0.867-1.523-1.52c-0.36-0.642-0.537-1.322-0.537-2.035c0-0.716,0.183-1.402,0.547-2.06
	c0.38-0.656,0.885-1.158,1.533-1.516c0.643-0.35,1.324-0.518,2.022-0.518c0.701,0,1.378,0.168,2.03,0.518
	c0.645,0.358,1.153,0.86,1.527,1.516C1007.355,341.284,1007.528,341.971,1007.528,342.686 M1007.834,340.129
	c-0.46-0.819-1.089-1.443-1.891-1.878c-0.808-0.437-1.647-0.66-2.52-0.66c-0.884,0-1.73,0.224-2.536,0.66
	c-0.802,0.435-1.421,1.059-1.891,1.878c-0.462,0.816-0.692,1.666-0.692,2.557c0,0.89,0.221,1.736,0.677,2.533
	c0.456,0.807,1.085,1.438,1.887,1.887c0.806,0.447,1.662,0.667,2.555,0.667c0.879,0,1.732-0.221,2.54-0.667
	c0.806-0.449,1.439-1.08,1.888-1.887c0.456-0.797,0.674-1.643,0.674-2.533C1008.525,341.795,1008.301,340.945,1007.834,340.129
	 M830.999,424.098c-0.11-2.647,0.911-4.915,3.064-6.802c2.156-1.883,4.975-3.082,8.459-3.57c3.848-0.531,7.117,0,9.817,1.613
	c1.752,1.04,2.966,2.787,3.664,5.256L830.999,424.098z M864.405,422.293c-0.687-4.933-3.127-8.499-7.309-10.692
	c-4.182-2.187-9.266-2.858-15.25-2.027c-6.18,0.867-11.01,2.96-14.498,6.282c-3.486,3.315-4.878,7.495-4.163,12.522
	c0.682,4.867,3.131,8.373,7.351,10.531c4.216,2.154,9.591,2.772,16.144,1.857c5.197-0.731,9.361-2.174,12.461-4.332
	c3.098-2.15,5.063-4.848,5.865-8.082l-7.932,0.451c-0.856,2.3-2.191,4.078-4.021,5.323c-1.824,1.257-4.133,2.078-6.913,2.467
	c-3.741,0.521-6.983,0.086-9.733-1.312c-2.752-1.395-4.496-3.714-5.241-6.96l33.388-4.673
	C864.501,423.039,864.447,422.592,864.405,422.293 M1004.206,342.014c-0.088,0.117-0.217,0.206-0.365,0.252
	c-0.156,0.045-0.549,0.074-1.178,0.074h-0.452v-1.474h0.452c0.614,0,1.013,0.027,1.178,0.08c0.157,0.045,0.276,0.134,0.365,0.245
	c0.09,0.12,0.134,0.254,0.134,0.404C1004.34,341.754,1004.296,341.89,1004.206,342.014 M1004.8,340.24
	c-0.207-0.115-0.495-0.187-0.863-0.219c-0.121-0.007-0.698-0.012-1.727-0.012h-1.097v5.4h1.097v-2.216h0.28
	c0.307,0,0.566,0.077,0.764,0.228c0.201,0.155,0.456,0.521,0.763,1.112l0.461,0.876h1.354l-0.638-1.088
	c-0.225-0.384-0.359-0.604-0.404-0.663c-0.153-0.197-0.274-0.336-0.36-0.41c-0.09-0.077-0.221-0.144-0.389-0.208
	c0.472-0.061,0.821-0.231,1.082-0.512c0.253-0.278,0.384-0.604,0.384-1.001c0-0.281-0.073-0.541-0.198-0.773
	C1005.165,340.523,1004.995,340.35,1004.8,340.24 M939.279,396.632l-7.375,19.627c-0.888,2.383-1.565,4.41-2.022,6.081
	c-1.166-1.959-2.402-3.829-3.721-5.626l-12.129-16.55l-8.008,1.116l21.242,27.519l7.082-0.994l12.729-32.269L939.279,396.632z
	 M980.239,407.973c0.311,2.236,0.138,3.98-0.514,5.245c-0.856,1.63-2.358,3.033-4.514,4.201c-2.162,1.172-4.695,1.972-7.615,2.369
	c-2.958,0.418-5.27,0.284-6.919-0.405c-1.657-0.687-2.589-1.705-2.778-3.059c-0.118-0.879,0.111-1.729,0.717-2.552
	c0.599-0.821,1.522-1.508,2.755-2.066c1.245-0.554,3.396-1.202,6.48-1.941c5.428-1.295,9.472-2.513,12.123-3.65L980.239,407.973z
	 M987.998,407.522l-0.961-6.758c-0.323-2.25-0.656-3.795-1.036-4.617c-0.649-1.328-1.596-2.367-2.846-3.121
	c-1.255-0.754-3.113-1.264-5.596-1.535c-2.463-0.263-5.614-0.13-9.439,0.409c-3.848,0.531-7.174,1.365-10.008,2.476
	c-2.823,1.114-4.912,2.428-6.276,3.952c-1.368,1.521-2.233,3.388-2.607,5.601l7.516-0.36c0.512-2.237,1.569-3.888,3.149-4.961
	c1.585-1.078,4.153-1.857,7.726-2.363c3.818-0.531,6.779-0.36,8.875,0.514c1.565,0.641,2.486,1.997,2.777,4.055
	c0.026,0.192,0.069,0.639,0.146,1.335c-2.804,1.078-7.235,2.294-13.287,3.636c-2.978,0.668-5.182,1.234-6.636,1.705
	c-1.973,0.658-3.722,1.466-5.225,2.429c-1.517,0.953-2.684,2.106-3.511,3.458c-0.828,1.348-1.142,2.759-0.935,4.214
	c0.36,2.5,1.961,4.368,4.836,5.607c2.867,1.232,6.756,1.5,11.668,0.814c2.993-0.415,5.734-1.136,8.241-2.156
	c2.505-1.017,5.05-2.523,7.638-4.51c0.422,1.375,1.105,2.53,2.031,3.475l7.932-1.113c-1.123-1.011-1.929-2.117-2.428-3.322
	C989.243,415.188,988.656,412.233,987.998,407.522 M994.648,362.264c-0.84,1.253-2.037,1.989-3.586,2.208
	c-1.551,0.218-2.92-0.165-4.091-1.147c-1.173-0.978-1.902-2.565-2.219-4.747c-0.313-2.214-0.052-3.936,0.782-5.166
	c0.821-1.243,2.042-1.976,3.651-2.194c1.608-0.23,2.977,0.134,4.099,1.087c1.118,0.94,1.84,2.52,2.146,4.73
	C995.757,359.267,995.489,361.005,994.648,362.264 M988.675,347.898c-1.569,0.219-2.923,0.671-4.051,1.345
	c-0.856,0.504-1.599,1.193-2.253,2.083c-0.647,0.885-1.129,1.847-1.435,2.891c-0.399,1.41-0.456,3.098-0.179,5.06
	c0.428,3.063,1.62,5.348,3.553,6.857c1.95,1.504,4.357,2.057,7.224,1.659c2.846-0.401,4.988-1.596,6.438-3.589
	c1.443-1.987,1.949-4.537,1.508-7.646c-0.431-3.136-1.632-5.457-3.595-6.978C993.928,348.059,991.527,347.5,988.675,347.898
	 M908.62,378.108c1.613,0.635,3.438,0.81,5.45,0.529c1.594-0.228,3.124-0.742,4.594-1.563c1.466-0.811,2.548-1.675,3.253-2.584
	l-1.081-7.656l-8.408,1.174l0.461,3.244l4.467-0.627l0.348,2.442c-0.533,0.539-1.181,1.022-1.96,1.458
	c-0.77,0.439-1.569,0.702-2.39,0.831c-1.646,0.225-3.064-0.161-4.245-1.162c-1.185-0.994-1.935-2.636-2.261-4.922
	c-0.292-2.116-0.016-3.789,0.837-5.003c0.859-1.218,2.14-1.945,3.84-2.183c1.124-0.159,2.104-0.015,2.93,0.424
	c0.829,0.445,1.445,1.115,1.848,2.026l3.778-1.264c-0.634-1.717-1.705-2.979-3.194-3.79c-1.488-0.817-3.437-1.052-5.833-0.717
	c-1.843,0.259-3.342,0.794-4.485,1.603c-1.514,1.059-2.574,2.429-3.202,4.103c-0.629,1.68-0.793,3.52-0.509,5.524
	c0.258,1.842,0.874,3.493,1.853,4.97C905.678,376.424,906.997,377.469,908.62,378.108 M966.535,354.652l1.876-0.266
	c1.408-0.19,2.344-0.286,2.824-0.261c0.657,0.028,1.21,0.236,1.692,0.635c0.469,0.399,0.764,0.946,0.863,1.65
	c0.081,0.566,0,1.086-0.23,1.561c-0.236,0.464-0.595,0.832-1.087,1.113c-0.485,0.277-1.503,0.516-3.044,0.733l-2.131,0.297
	L966.535,354.652z M967.758,363.384l2.54-0.355c1.769-0.246,3.096-0.535,4.009-0.844c0.673-0.251,1.292-0.646,1.897-1.199
	c0.601-0.551,1.057-1.259,1.368-2.12c0.323-0.867,0.391-1.895,0.227-3.069c-0.215-1.538-0.759-2.736-1.642-3.591
	c-0.882-0.865-1.891-1.367-3.044-1.502c-0.753-0.091-2.315,0.031-4.686,0.368l-6.261,0.873l2.717,19.242l3.913-0.545
	L967.758,363.384z M927.554,360.111l3.04-0.424c1.59-0.224,2.534-0.341,2.86-0.341c0.645,0.023,1.169,0.203,1.577,0.552
	c0.402,0.347,0.651,0.848,0.744,1.492c0.076,0.579,0.014,1.078-0.192,1.506c-0.217,0.426-0.543,0.738-0.986,0.967
	c-0.441,0.223-1.603,0.462-3.466,0.729l-2.891,0.403L927.554,360.111z M928.673,368.066l0.79-0.113
	c0.903-0.121,1.562-0.142,1.995-0.056c0.43,0.082,0.863,0.293,1.286,0.631c0.422,0.339,1.239,1.189,2.459,2.547l3.403,3.794
	l4.673-0.656l-2.889-3.424c-1.149-1.368-2.033-2.304-2.663-2.816c-0.637-0.514-1.411-0.953-2.317-1.322
	c1.661-0.479,2.851-1.256,3.576-2.317c0.711-1.059,0.97-2.306,0.769-3.756c-0.167-1.136-0.585-2.104-1.278-2.914
	c-0.681-0.802-1.517-1.314-2.501-1.525c-0.984-0.222-2.512-0.182-4.581,0.104l-8.202,1.156l2.718,19.244l3.894-0.549
	L928.673,368.066z M946.559,371.751c0.648,0.603,1.479,1.048,2.501,1.339c1.013,0.29,2.436,0.309,4.289,0.046
	c1.516-0.211,2.732-0.583,3.629-1.109c0.894-0.516,1.575-1.145,2.045-1.882c0.482-0.735,0.756-1.598,0.833-2.574
	c0.08-0.99-0.044-2.636-0.376-4.949l-1.425-10.103l-3.9,0.547l1.498,10.648c0.213,1.523,0.309,2.624,0.289,3.286
	c-0.025,0.675-0.283,1.28-0.782,1.811c-0.495,0.524-1.297,0.864-2.407,1.023c-1.09,0.155-1.978,0.036-2.674-0.353
	c-0.7-0.391-1.182-0.965-1.464-1.734c-0.159-0.476-0.36-1.539-0.606-3.19l-1.466-10.425l-3.901,0.543l1.45,10.268
	c0.311,2.151,0.668,3.763,1.07,4.828C945.45,370.489,945.911,371.153,946.559,371.751"/>
<g>
</g>
<g>
</g>
<g>
</g>
<g>
</g>
<g>
</g>
<g>
</g>
</svg>
